<?xml version="1.0" encoding="UTF-8"?>
<svg viewBox="0 0 192 236" xmlns="http://www.w3.org/2000/svg">
<path d="m30.232 130.24-2.352-9.36h-11.472l-2.544 9.12-6.144-0.48 4.224-11.664 6.432-20.64 8.592-0.624 6.192 20.544 3.984 12.048-6.912 1.056zm-7.584-27.408h-0.624l-4.128 12.96h8.544l-3.792-12.96zm37.276 12.192h0.4801l7.008-18.24 6.624 0.192 0.192 20.64 0.912 12.384h-6.48l0.24-12.48-0.5281-12.624-5.7599 15.888-5.9041 0.288-5.3759-16.176-0.432 12.624 0.336 12.48h-5.9521l0.672-11.664 0.288-20.592 7.6321-1.2 6.0479 18.48zm40.179 0h0.48l7.008-18.24 6.624 0.192 0.192 20.64 0.912 12.384h-6.48l0.24-12.48-0.528-12.624-5.76 15.888-5.9039 0.288-5.376-16.176-0.432 12.624 0.336 12.48h-5.952l0.672-11.664 0.288-20.592 7.632-1.2 6.0479 18.48zm45.652 15.216-2.352-9.36h-11.473l-2.544 9.12-6.144-0.48 4.224-11.664 6.432-20.64 8.592-0.624 6.192 20.544 3.985 12.048-6.912 1.056zm-7.585-27.408h-0.623l-4.129 12.96h8.545l-3.793-12.96zm31.948 14.4h-2.736v0.288l0.576 12.48h-6.432l0.576-11.664-0.576-21.456h10.416c3.072 0 5.52 0.832 7.344 2.496s2.736 3.872 2.736 6.624c0 2.08-0.544 3.984-1.632 5.712-1.056 1.696-2.496 3.04-4.32 4.032l8.352 11.808-5.808 2.976-7.488-13.344c-0.224 0.032-0.56 0.048-1.008 0.048zm0.096-15.504h-2.352l-0.336 10.848h3.264c1.6 0 2.832-0.528 3.696-1.584 0.896-1.056 1.344-2.56 1.344-4.512 0-3.168-1.872-4.752-5.616-4.752z"/>
<path d="m27.36 207.06c-4.544 0-11.104-0.352-19.68-1.056l1.152-23.328-1.152-42.912h25.632c8.64 0 15.392 2.592 20.256 7.776s7.296 12.384 7.296 21.6c0 11.648-3.008 20.896-9.024 27.744-6.016 6.784-14.176 10.176-24.48 10.176zm2.496-56.928c-4.224 0-7.2 0.032-8.928 0.096l-0.96 30.816 0.672 15.552c5.376 0.384 8.992 0.576 10.848 0.576 5.056 0 9.024-2.048 11.904-6.144 2.944-4.096 4.416-10.048 4.416-17.856s-1.44-13.6-4.32-17.376c-2.816-3.776-7.36-5.664-13.632-5.664zm80.358 56.352-4.704-18.72h-22.944l-5.088 18.24-12.288-0.96 8.448-23.328 12.864-41.28 17.184-1.248 12.384 41.088 7.968 24.096-13.824 2.112zm-15.168-54.816h-1.248l-8.256 25.92h17.088l-7.584-25.92zm88.856-12.096-1.248 41.472 1.056 22.848-11.328 2.4-28.608-46.272v21.024l1.344 24.96h-12l1.152-23.328-1.152-42.624 11.52-0.576 28.512 46.944-0.96-45.408 11.712-1.44z"/>
<path d="m96 0 10.328 29.021h33.421l-27.039 17.936 10.328 29.021-27.038-17.936-27.038 17.936 10.328-29.021-27.038-17.936h33.421l10.328-29.021z" fill="#020202"/>
</svg>
