<svg width="275" height="254" viewBox="0 0 275 254" fill="none" xmlns="http://www.w3.org/2000/svg">
<rect width="275" height="250" rx="25" fill="white"/>
<path d="M71.232 148.24L68.88 138.88H57.408L54.864 148L48.72 147.52L52.944 135.856L59.376 115.216L67.968 114.592L74.16 135.136L78.144 147.184L71.232 148.24ZM63.648 120.832H63.024L58.896 133.792H67.44L63.648 120.832ZM100.924 133.024H101.404L108.412 114.784L115.036 114.976L115.228 135.616L116.14 148H109.66L109.9 135.52L109.372 122.896L103.612 138.784L97.7077 139.072L92.3318 122.896L91.8998 135.52L92.2358 148H86.2837L86.9557 136.336L87.2437 115.744L94.8758 114.544L100.924 133.024ZM141.103 133.024H141.583L148.591 114.784L155.215 114.976L155.407 135.616L156.319 148H149.839L150.079 135.52L149.551 122.896L143.791 138.784L137.887 139.072L132.511 122.896L132.079 135.52L132.415 148H126.463L127.135 136.336L127.423 115.744L135.055 114.544L141.103 133.024ZM186.755 148.24L184.403 138.88H172.93L170.386 148L164.242 147.52L168.466 135.856L174.898 115.216L183.49 114.592L189.682 135.136L193.667 147.184L186.755 148.24ZM179.17 120.832H178.547L174.418 133.792H182.963L179.17 120.832ZM211.118 135.232H208.382V135.52L208.958 148H202.526L203.102 136.336L202.526 114.88H212.942C216.014 114.88 218.462 115.712 220.286 117.376C222.11 119.04 223.022 121.248 223.022 124C223.022 126.08 222.478 127.984 221.39 129.712C220.334 131.408 218.894 132.752 217.07 133.744L225.422 145.552L219.614 148.528L212.126 135.184C211.902 135.216 211.566 135.232 211.118 135.232ZM211.214 119.728H208.862L208.526 130.576H211.79C213.39 130.576 214.622 130.048 215.486 128.992C216.382 127.936 216.83 126.432 216.83 124.48C216.83 121.312 214.958 119.728 211.214 119.728Z" fill="#141313"/>
<path d="M68.36 225.056C63.816 225.056 57.256 224.704 48.68 224L49.832 200.672L48.68 157.76H74.312C82.952 157.76 89.704 160.352 94.568 165.536C99.432 170.72 101.864 177.92 101.864 187.136C101.864 198.784 98.856 208.032 92.84 214.88C86.824 221.664 78.664 225.056 68.36 225.056ZM70.856 168.128C66.632 168.128 63.656 168.16 61.928 168.224L60.968 199.04L61.64 214.592C67.016 214.976 70.632 215.168 72.488 215.168C77.544 215.168 81.512 213.12 84.392 209.024C87.336 204.928 88.808 198.976 88.808 191.168C88.808 183.36 87.368 177.568 84.488 173.792C81.672 170.016 77.128 168.128 70.856 168.128ZM151.214 224.48L146.51 205.76H123.566L118.478 224L106.19 223.04L114.638 199.712L127.502 158.432L144.686 157.184L157.07 198.272L165.038 222.368L151.214 224.48ZM136.046 169.664H134.798L126.542 195.584H143.63L136.046 169.664ZM224.902 157.568L223.654 199.04L224.71 221.888L213.382 224.288L184.774 178.016V199.04L186.118 224H174.118L175.27 200.672L174.118 158.048L185.638 157.472L214.15 204.416L213.19 159.008L224.902 157.568Z" fill="#141313"/>
<path d="M137 18L147.328 47.0213H180.749L153.71 64.9574L164.038 93.9787L137 76.0426L109.962 93.9787L120.29 64.9574L93.2514 47.0213H126.672L137 18Z" fill="#141313"/>
</svg>
